<svg width="417" height="389" viewBox="0 0 417 389" fill="none" xmlns="http://www.w3.org/2000/svg">
<rect width="417" height="389" fill="white"/>
<rect x="98" y="85" width="219.5" height="219.5" rx="106" fill="white" stroke="black" stroke-width="8"/>
<mask id="path-2-inside-1_32_207" fill="white">
<path fill-rule="evenodd" clip-rule="evenodd" d="M162.118 179.899C161.275 177.011 160.822 173.956 160.822 170.796C160.822 152.902 175.328 138.396 193.222 138.396C206.918 138.396 218.629 146.894 223.37 158.905C223.815 158.753 224.265 158.609 224.72 158.473C240.327 153.827 256.166 160.765 260.097 173.971C261.733 179.463 261.714 186.04 260.012 192.183C271.114 192.38 280.054 201.442 280.054 212.592C280.054 223.865 270.915 233.004 259.642 233.004H163.738C163.688 233.004 163.637 233.004 163.587 233.003C163.529 233.004 163.472 233.004 163.414 233.004C148.741 233.004 136.846 221.109 136.846 206.436C136.846 192.197 148.047 180.575 162.118 179.899Z"/>
</mask>
<path d="M162.118 179.899L162.502 187.89L172.645 187.403L169.797 177.655L162.118 179.899ZM223.37 158.905L215.929 161.842L218.733 168.944L225.958 166.475L223.37 158.905ZM224.72 158.473L227.003 166.141L227.003 166.141L224.72 158.473ZM260.097 173.971L252.43 176.254L252.43 176.254L260.097 173.971ZM260.012 192.183L252.302 190.047L249.544 199.999L259.87 200.182L260.012 192.183ZM163.587 233.003L163.645 225.004L163.59 225.003L163.536 225.004L163.587 233.003ZM169.797 177.655C169.164 175.489 168.822 173.189 168.822 170.796H152.822C152.822 174.724 153.385 178.534 154.439 182.143L169.797 177.655ZM168.822 170.796C168.822 157.32 179.746 146.396 193.222 146.396V130.396C170.91 130.396 152.822 148.484 152.822 170.796H168.822ZM193.222 146.396C203.524 146.396 212.353 152.783 215.929 161.842L230.811 155.967C224.905 141.005 210.312 130.396 193.222 130.396V146.396ZM222.437 150.806C221.88 150.972 221.328 151.148 220.783 151.335L225.958 166.475C226.302 166.357 226.65 166.246 227.003 166.141L222.437 150.806ZM267.765 171.688C262.23 153.097 241.028 145.271 222.437 150.806L227.003 166.141C239.626 162.383 250.102 168.433 252.43 176.254L267.765 171.688ZM267.721 194.32C269.783 186.879 269.871 178.763 267.765 171.688L252.43 176.254C253.594 180.164 253.645 185.201 252.302 190.047L267.721 194.32ZM288.054 212.592C288.054 197.071 275.611 184.459 260.154 184.185L259.87 200.182C266.618 200.302 272.054 205.813 272.054 212.592H288.054ZM259.642 241.004C275.334 241.004 288.054 228.283 288.054 212.592H272.054C272.054 219.447 266.497 225.004 259.642 225.004V241.004ZM163.738 241.004H259.642V225.004H163.738V241.004ZM163.529 241.003C163.598 241.004 163.668 241.004 163.738 241.004V225.004C163.707 225.004 163.676 225.004 163.645 225.004L163.529 241.003ZM163.414 241.004C163.489 241.004 163.563 241.004 163.638 241.003L163.536 225.004C163.495 225.004 163.455 225.004 163.414 225.004V241.004ZM128.846 206.436C128.846 225.527 144.323 241.004 163.414 241.004V225.004C153.159 225.004 144.846 216.691 144.846 206.436H128.846ZM161.735 171.908C143.42 172.788 128.846 187.908 128.846 206.436H144.846C144.846 196.487 152.674 188.362 162.502 187.89L161.735 171.908Z" fill="black" mask="url(#path-2-inside-1_32_207)"/>
</svg>
