<svg width="417" height="389" viewBox="0 0 417 389" fill="none" xmlns="http://www.w3.org/2000/svg">
<g clip-path="url(#clip0_32_242)">
<rect width="417" height="389" fill="white"/>
<rect x="98" y="85" width="219.5" height="219.5" rx="106" fill="white" stroke="black" stroke-width="8"/>
<path fill-rule="evenodd" clip-rule="evenodd" d="M417 0H0V389H417V0ZM204 81C143.249 81 94 130.249 94 191V198.5C94 259.251 143.249 308.5 204 308.5H211.5C272.251 308.5 321.5 259.251 321.5 198.5V191C321.5 130.249 272.251 81 211.5 81H204Z" fill="white"/>
<mask id="mask0_32_242" style="mask-type:alpha" maskUnits="userSpaceOnUse" x="132" y="118" width="154" height="154">
<rect x="132.2" y="118.2" width="153.6" height="153.6" fill="#D9D9D9"/>
</mask>
<g mask="url(#mask0_32_242)">
<path d="M171.7 263.874V212.76V212.448L171.537 212.183L151.092 179L180.014 132.1H237.986L266.908 179L246.464 212.183L246.3 212.448V212.76V263.874L209.348 251.556L209 251.44L208.652 251.556L171.7 263.874ZM182.3 247.64V249.163L183.746 248.684L209 240.319L234.254 248.684L235.7 249.163V247.64V227V225.9H234.6H183.4H182.3V227V247.64ZM186.6 142.7H185.987L185.664 143.222L163.904 178.422L163.547 179L163.904 179.578L185.664 214.778L185.987 215.3H186.6H231.4H232.013L232.336 214.778L254.096 179.578L254.453 179L254.096 178.422L232.336 143.222L232.013 142.7H231.4H186.6Z" fill="black" stroke="white" stroke-width="2.2"/>
</g>
<mask id="path-5-outside-1_32_242" maskUnits="userSpaceOnUse" x="181.5" y="160" width="55" height="41" fill="black">
<rect fill="white" x="181.5" y="160" width="55" height="41"/>
<path d="M193.347 171.517L195.63 173.975L187.904 181.13L195.761 188.24L193.347 190.742L183.734 181.744V180.515L193.347 171.517ZM214.856 161.553H218.631L203.005 198.599H199.274L214.856 161.553ZM234.267 180.515V181.744L224.61 190.742L222.24 188.372L230.097 181.13L222.327 173.887L224.61 171.517L234.267 180.515Z"/>
</mask>
<path d="M193.347 171.517L195.63 173.975L187.904 181.13L195.761 188.24L193.347 190.742L183.734 181.744V180.515L193.347 171.517ZM214.856 161.553H218.631L203.005 198.599H199.274L214.856 161.553ZM234.267 180.515V181.744L224.61 190.742L222.24 188.372L230.097 181.13L222.327 173.887L224.61 171.517L234.267 180.515Z" fill="black"/>
<path d="M193.347 171.517L194.446 170.496L193.422 169.392L192.322 170.422L193.347 171.517ZM195.63 173.975L196.649 175.075L197.751 174.055L196.729 172.954L195.63 173.975ZM187.904 181.13L186.885 180.029L185.683 181.142L186.898 182.242L187.904 181.13ZM195.761 188.24L196.841 189.282L197.916 188.167L196.768 187.128L195.761 188.24ZM193.347 190.742L192.322 191.837L193.401 192.847L194.427 191.784L193.347 190.742ZM183.734 181.744H182.234V182.395L182.709 182.839L183.734 181.744ZM183.734 180.515L182.709 179.42L182.234 179.864V180.515H183.734ZM192.248 172.537L194.53 174.995L196.729 172.954L194.446 170.496L192.248 172.537ZM194.61 172.874L186.885 180.029L188.924 182.23L196.649 175.075L194.61 172.874ZM186.898 182.242L194.755 189.352L196.768 187.128L188.911 180.017L186.898 182.242ZM194.682 187.199L192.268 189.701L194.427 191.784L196.841 189.282L194.682 187.199ZM194.372 189.647L184.759 180.649L182.709 182.839L192.322 191.837L194.372 189.647ZM185.234 181.744V180.515H182.234V181.744H185.234ZM184.759 181.61L194.372 172.612L192.322 170.422L182.709 179.42L184.759 181.61ZM214.856 161.553V160.053H213.86L213.474 160.971L214.856 161.553ZM218.631 161.553L220.013 162.136L220.892 160.053H218.631V161.553ZM203.005 198.599V200.099H204L204.387 199.182L203.005 198.599ZM199.274 198.599L197.891 198.018L197.016 200.099H199.274V198.599ZM214.856 163.053H218.631V160.053H214.856V163.053ZM217.249 160.97L201.623 198.016L204.387 199.182L220.013 162.136L217.249 160.97ZM203.005 197.099H199.274V200.099H203.005V197.099ZM200.657 199.181L216.239 162.134L213.474 160.971L197.891 198.018L200.657 199.181ZM234.267 180.515H235.767V179.862L235.289 179.418L234.267 180.515ZM234.267 181.744L235.289 182.841L235.767 182.397V181.744H234.267ZM224.61 190.742L223.549 191.803L224.573 192.827L225.633 191.84L224.61 190.742ZM222.24 188.372L221.223 187.269L220.074 188.328L221.179 189.433L222.24 188.372ZM230.097 181.13L231.113 182.232L232.303 181.136L231.12 180.032L230.097 181.13ZM222.327 173.887L221.247 172.847L220.19 173.945L221.305 174.984L222.327 173.887ZM224.61 171.517L225.633 170.419L224.553 169.413L223.529 170.476L224.61 171.517ZM232.767 180.515V181.744H235.767V180.515H232.767ZM233.244 180.647L223.587 189.645L225.633 191.84L235.289 182.841L233.244 180.647ZM225.671 189.682L223.3 187.311L221.179 189.433L223.549 191.803L225.671 189.682ZM223.256 189.475L231.113 182.232L229.08 180.027L221.223 187.269L223.256 189.475ZM231.12 180.032L223.35 172.79L221.305 174.984L229.074 182.227L231.12 180.032ZM223.408 174.927L225.69 172.557L223.529 170.476L221.247 172.847L223.408 174.927ZM223.587 172.614L233.244 181.612L235.289 179.418L225.633 170.419L223.587 172.614Z" fill="black" mask="url(#path-5-outside-1_32_242)"/>
</g>
<defs>
<clipPath id="clip0_32_242">
<rect width="417" height="389" fill="white"/>
</clipPath>
</defs>
</svg>
