<svg width="417" height="389" viewBox="0 0 417 389" fill="none" xmlns="http://www.w3.org/2000/svg">
<g clip-path="url(#clip0_32_233)">
<rect width="417" height="389" fill="white"/>
<rect x="98" y="85" width="219.5" height="219.5" rx="106" fill="white" stroke="black" stroke-width="8"/>
<path d="M151.183 213.834L172.836 227.383C157.713 252.484 155.119 283.594 166.785 311.894L166.855 312.066L166.94 312.231L247.258 468.307L249.294 472.263L253.227 470.184L411.083 386.734L414.867 384.734L412.973 380.896L335.307 223.548L335.188 223.308L335.041 223.083C318.257 197.484 291.106 182.073 261.834 180.406L262.864 154.886L258.468 154.696L262.865 154.873L262.865 154.875C263.039 150.705 259.774 147.329 255.749 147.151L255.555 151.546L255.749 147.151C251.664 146.97 248.149 150.155 248.002 154.291C248.002 154.298 248.001 154.304 248.001 154.311L246.932 180.735C234.839 181.969 222.661 185.571 210.939 191.758C199.218 197.944 189.373 205.967 181.531 215.255L159.084 201.212L159.074 201.206C155.582 199.034 151.009 200.1 148.825 203.574L152.55 205.915L148.825 203.574C146.639 207.052 147.667 211.644 151.177 213.831C151.179 213.832 151.181 213.833 151.183 213.834ZM201.731 256.709L201.736 256.718L201.741 256.727C202.534 258.212 201.976 260.157 200.372 261.004C198.785 261.841 196.861 261.223 196.059 259.703C195.254 258.178 195.835 256.243 197.418 255.408C199.005 254.57 200.929 255.189 201.731 256.709ZM275.416 217.816L275.42 217.825L275.425 217.834C276.218 219.32 275.66 221.264 274.056 222.111C272.469 222.948 270.546 222.33 269.744 220.81C268.939 219.285 269.52 217.35 271.103 216.515C272.69 215.677 274.613 216.296 275.416 217.816Z" stroke="black" stroke-width="8.8"/>
<path d="M175.608 399.541C165.483 380.361 172.823 356.604 192.003 346.479V346.479C211.183 336.354 234.939 343.694 245.065 362.874L314.47 494.346L245.013 531.013L175.608 399.541Z" fill="black"/>
<path d="M332.69 319.597C322.565 300.417 329.905 276.66 349.085 266.535V266.535C368.265 256.41 392.022 263.75 402.147 282.93L471.552 414.402L402.096 451.069L332.69 319.597Z" fill="black"/>
<path fill-rule="evenodd" clip-rule="evenodd" d="M417 0H0V389H417V0ZM204 81C143.249 81 94 130.249 94 191V198.5C94 259.251 143.249 308.5 204 308.5H211.5C272.251 308.5 321.5 259.251 321.5 198.5V191C321.5 130.249 272.251 81 211.5 81H204Z" fill="white"/>
</g>
<defs>
<clipPath id="clip0_32_233">
<rect width="417" height="389" fill="white"/>
</clipPath>
</defs>
</svg>
