<svg width="417" height="389" viewBox="0 0 417 389" fill="none" xmlns="http://www.w3.org/2000/svg">
<g clip-path="url(#clip0_32_251)">
<rect width="417" height="389" fill="white"/>
<rect x="98" y="85" width="219.5" height="219.5" rx="106" fill="white" stroke="black" stroke-width="8"/>
<path fill-rule="evenodd" clip-rule="evenodd" d="M417 0H0V389H417V0ZM204 81C143.249 81 94 130.249 94 191V198.5C94 259.251 143.249 308.5 204 308.5H211.5C272.251 308.5 321.5 259.251 321.5 198.5V191C321.5 130.249 272.251 81 211.5 81H204Z" fill="white"/>
<path d="M261.233 183.35L261.227 183.334L261.221 183.318L261.087 182.977L261.077 182.951L247.149 146.603L247.14 146.579L247.131 146.556C246.535 145.058 245.48 143.787 244.117 142.925L244.103 142.917L244.09 142.908C242.745 142.074 241.177 141.672 239.596 141.757C238.016 141.842 236.5 142.409 235.253 143.383L235.222 143.407L235.192 143.431C233.983 144.414 233.099 145.738 232.655 147.231L224.166 173.205H191.861L183.375 147.244C182.936 145.735 182.043 144.396 180.816 143.411L180.795 143.395L180.774 143.378C179.527 142.404 178.011 141.836 176.43 141.751C174.85 141.666 173.282 142.068 171.937 142.903L171.919 142.914L171.901 142.926C170.547 143.787 169.497 145.051 168.9 146.54L168.889 146.567L168.879 146.595L154.914 182.953L154.91 182.964L154.905 182.976L154.774 183.325C154.773 183.328 154.772 183.332 154.77 183.335C152.457 189.385 152.173 196.022 153.959 202.248C155.744 208.468 159.5 213.939 164.661 217.841L164.686 217.861L164.757 217.916L164.83 217.968L164.915 218.028L186.088 233.883L186.104 233.896L196.591 241.833L196.595 241.836L202.985 246.66C202.987 246.662 202.988 246.663 202.99 246.665C204.433 247.758 206.195 248.35 208.005 248.35C209.816 248.35 211.577 247.758 213.02 246.665C213.022 246.663 213.024 246.662 213.026 246.66L219.416 241.836L219.419 241.833L229.907 233.896L229.923 233.883L251.266 217.9L251.317 217.862L251.367 217.822L251.38 217.812C256.518 213.911 260.257 208.451 262.037 202.249C263.822 196.028 263.54 189.397 261.233 183.35Z" fill="white" stroke="black" stroke-width="8"/>
<path d="M261.232 183.349L261.226 183.334L261.221 183.319L261.077 182.951L259.849 179.812L256.547 180.49C249.179 182.002 242.236 185.123 236.214 189.63L236.206 189.636L236.198 189.642L205.587 212.787L201.369 215.977L205.587 219.168C210.799 223.112 215.675 226.796 219.247 229.495C221.033 230.845 222.493 231.948 223.507 232.714L224.678 233.598L224.984 233.829L225.062 233.888L225.082 233.903L225.087 233.906L225.088 233.907L225.088 233.908C225.088 233.908 225.088 233.908 227.499 230.715L225.088 233.908L227.489 235.72L229.896 233.917L251.256 217.921L251.307 217.883L251.357 217.843L251.368 217.834C256.513 213.933 260.257 208.471 262.039 202.263C263.827 196.038 263.543 189.4 261.232 183.349Z" fill="white" stroke="black" stroke-width="8"/>
<path d="M188.501 230.715L186.087 227.527L181.875 230.716L186.088 233.905L196.591 241.855L196.595 241.857L202.985 246.681C202.986 246.683 202.988 246.684 202.99 246.685C204.433 247.779 206.194 248.372 208.005 248.372C209.816 248.372 211.578 247.779 213.021 246.685C213.023 246.684 213.024 246.683 213.026 246.681L219.416 241.857L219.419 241.855L229.923 233.905L234.138 230.714L229.922 227.525L227.509 230.715C229.922 227.525 229.922 227.525 229.922 227.525L229.922 227.525L229.921 227.524L229.916 227.52L229.896 227.505L229.818 227.446L229.511 227.214L228.339 226.328C227.324 225.561 225.863 224.455 224.075 223.105C220.5 220.403 215.622 216.718 210.409 212.785L208 210.967L205.591 212.785C200.377 216.718 195.501 220.404 191.929 223.105C190.143 224.456 188.682 225.562 187.668 226.329L186.497 227.216L186.191 227.447L186.113 227.507L186.093 227.521L186.088 227.525L186.087 227.526L186.087 227.526C186.087 227.527 186.087 227.527 188.501 230.715Z" fill="white" stroke="black" stroke-width="8"/>
<path d="M179.795 189.641L179.795 189.641L179.786 189.633C173.768 185.117 166.825 181.987 159.456 180.469L156.11 179.78L154.905 182.976L154.77 183.335C152.457 189.385 152.173 196.022 153.959 202.248C155.744 208.468 159.5 213.939 164.661 217.841L164.686 217.861L164.757 217.916L164.83 217.968L164.915 218.028L186.104 233.896L188.513 235.7L190.913 233.885L188.501 230.694C190.913 233.885 190.914 233.885 190.914 233.885L190.914 233.885L190.915 233.884L190.92 233.88L190.94 233.865L191.018 233.806L191.323 233.575L192.493 232.691L196.75 229.474C200.32 226.775 205.195 223.091 210.412 219.148L214.636 215.956L210.411 212.765L179.795 189.641Z" fill="white" stroke="black" stroke-width="8"/>
</g>
<defs>
<clipPath id="clip0_32_251">
<rect width="417" height="389" fill="white"/>
</clipPath>
</defs>
</svg>
