<svg width="417" height="389" viewBox="0 0 417 389" fill="none" xmlns="http://www.w3.org/2000/svg">
<g clip-path="url(#clip0_32_261)">
<rect width="417" height="389" fill="white"/>
<rect x="98" y="85" width="219.5" height="219.5" rx="106" fill="white" stroke="black" stroke-width="8"/>
<path fill-rule="evenodd" clip-rule="evenodd" d="M417 0H0V389H417V0ZM204 81C143.249 81 94 130.249 94 191V198.5C94 259.251 143.249 308.5 204 308.5H211.5C272.251 308.5 321.5 259.251 321.5 198.5V191C321.5 130.249 272.251 81 211.5 81H204Z" fill="white"/>
<path d="M171.253 159.093C171.253 154.452 173.097 150.001 176.378 146.719C179.66 143.437 184.111 141.594 188.752 141.594H206.252V176.593H188.752C184.111 176.593 179.66 174.749 176.378 171.467C173.097 168.185 171.253 163.734 171.253 159.093Z" stroke="black" stroke-width="8" stroke-linecap="round" stroke-linejoin="round"/>
<path d="M206.252 141.594H223.751C226.05 141.594 228.325 142.046 230.448 142.926C232.571 143.805 234.5 145.094 236.125 146.719C237.75 148.344 239.039 150.273 239.919 152.396C240.798 154.519 241.251 156.795 241.251 159.093C241.251 161.391 240.798 163.667 239.919 165.79C239.039 167.913 237.75 169.842 236.125 171.467C234.5 173.092 232.571 174.381 230.448 175.261C228.325 176.14 226.05 176.593 223.751 176.593H206.252V141.594Z" stroke="black" stroke-width="8" stroke-linecap="round" stroke-linejoin="round"/>
<path d="M206.252 194.092C206.252 191.794 206.705 189.518 207.584 187.395C208.463 185.272 209.752 183.343 211.377 181.718C213.002 180.093 214.932 178.804 217.055 177.925C219.178 177.045 221.453 176.593 223.751 176.593C226.05 176.593 228.325 177.045 230.448 177.925C232.571 178.804 234.5 180.093 236.125 181.718C237.75 183.343 239.039 185.272 239.919 187.395C240.798 189.518 241.251 191.794 241.251 194.092C241.251 196.39 240.798 198.666 239.919 200.789C239.039 202.912 237.75 204.841 236.125 206.466C234.5 208.091 232.571 209.38 230.448 210.259C228.325 211.139 226.05 211.592 223.751 211.592C221.453 211.592 219.178 211.139 217.055 210.259C214.932 209.38 213.002 208.091 211.377 206.466C209.752 204.841 208.463 202.912 207.584 200.789C206.705 198.666 206.252 196.39 206.252 194.092Z" stroke="black" stroke-width="8" stroke-linecap="round" stroke-linejoin="round"/>
<path d="M171.253 229.091C171.253 224.45 173.097 219.999 176.378 216.717C179.66 213.435 184.111 211.592 188.752 211.592H206.252V229.091C206.252 233.732 204.408 238.183 201.126 241.465C197.845 244.747 193.394 246.591 188.752 246.591C184.111 246.591 179.66 244.747 176.378 241.465C173.097 238.183 171.253 233.732 171.253 229.091Z" stroke="black" stroke-width="8" stroke-linecap="round" stroke-linejoin="round"/>
<path d="M171.253 194.092C171.253 189.451 173.097 185 176.378 181.718C179.66 178.436 184.111 176.593 188.752 176.593H206.252V211.592H188.752C184.111 211.592 179.66 209.748 176.378 206.466C173.097 203.184 171.253 198.733 171.253 194.092Z" stroke="black" stroke-width="8" stroke-linecap="round" stroke-linejoin="round"/>
</g>
<defs>
<clipPath id="clip0_32_261">
<rect width="417" height="389" fill="white"/>
</clipPath>
</defs>
</svg>
