<svg width="417" height="389" viewBox="0 0 417 389" fill="none" xmlns="http://www.w3.org/2000/svg">
<g clip-path="url(#clip0_32_214)">
<rect width="417" height="389" fill="white"/>
<rect x="98" y="85" width="219.5" height="219.5" rx="106" fill="white" stroke="black" stroke-width="8"/>
<rect x="124" y="158" width="201" height="147" rx="8" stroke="black" stroke-width="8"/>
<rect x="124" y="158" width="201" height="29" rx="8" stroke="black" stroke-width="8"/>
<path fill-rule="evenodd" clip-rule="evenodd" d="M417 0H0V389H417V0ZM204 81C143.249 81 94 130.249 94 191V198.5C94 259.251 143.249 308.5 204 308.5H211.5C272.251 308.5 321.5 259.251 321.5 198.5V191C321.5 130.249 272.251 81 211.5 81H204Z" fill="white"/>
<circle cx="141.5" cy="172.5" r="4.5" fill="black"/>
<circle cx="156.5" cy="172.5" r="4.5" fill="black"/>
<circle cx="171.5" cy="172.5" r="4.5" fill="black"/>
<path d="M197.648 170.355H198.72V172.468C199.032 172.113 199.449 171.936 199.97 171.936C200.475 171.936 200.876 172.102 201.172 172.436C201.473 172.769 201.623 173.215 201.623 173.774V176H200.551V173.839C200.551 173.532 200.475 173.296 200.325 173.129C200.18 172.957 199.973 172.871 199.704 172.871C199.408 172.871 199.169 172.968 198.986 173.161C198.809 173.35 198.72 173.597 198.72 173.903V176H197.648V170.355ZM204.32 176.065C203.895 176.065 203.562 175.944 203.32 175.702C203.083 175.46 202.965 175.089 202.965 174.589V172.895H202.247V172.016H202.965V171L204.029 170.887V172.016H205.102V172.895H204.029V174.589C204.029 174.766 204.072 174.903 204.158 175C204.25 175.091 204.376 175.137 204.537 175.137C204.693 175.137 204.852 175.1 205.013 175.024L205.295 175.855C205.134 175.93 204.976 175.984 204.82 176.016C204.669 176.048 204.503 176.065 204.32 176.065ZM207.674 176.065C207.25 176.065 206.916 175.944 206.675 175.702C206.438 175.46 206.32 175.089 206.32 174.589V172.895H205.602V172.016H206.32V171L207.384 170.887V172.016H208.457V172.895H207.384V174.589C207.384 174.766 207.427 174.903 207.513 175C207.605 175.091 207.731 175.137 207.892 175.137C208.048 175.137 208.207 175.1 208.368 175.024L208.65 175.855C208.489 175.93 208.33 175.984 208.174 176.016C208.024 176.048 207.857 176.065 207.674 176.065ZM209.263 172.016H210.191L210.263 172.492C210.424 172.309 210.623 172.17 210.86 172.073C211.102 171.976 211.363 171.928 211.642 171.928C212.018 171.928 212.352 172.016 212.642 172.194C212.938 172.366 213.166 172.61 213.327 172.928C213.494 173.245 213.577 173.605 213.577 174.008C213.577 174.411 213.494 174.772 213.327 175.089C213.166 175.406 212.938 175.653 212.642 175.831C212.352 176.003 212.018 176.089 211.642 176.089C211.379 176.089 211.134 176.046 210.908 175.96C210.688 175.874 210.497 175.75 210.336 175.589V177.782H209.263V172.016ZM210.328 174.008C210.328 174.342 210.43 174.616 210.634 174.831C210.838 175.046 211.102 175.153 211.424 175.153C211.742 175.153 212.002 175.046 212.207 174.831C212.411 174.616 212.513 174.342 212.513 174.008C212.513 173.675 212.411 173.401 212.207 173.186C212.002 172.971 211.742 172.863 211.424 172.863C211.102 172.863 210.838 172.971 210.634 173.186C210.43 173.401 210.328 173.675 210.328 174.008ZM215.851 176.105C215.168 176.105 214.563 175.917 214.037 175.54L214.48 174.782C214.663 174.911 214.881 175.014 215.133 175.089C215.386 175.159 215.641 175.194 215.899 175.194C216.114 175.194 216.281 175.161 216.399 175.097C216.518 175.032 216.577 174.941 216.577 174.823C216.577 174.704 216.518 174.616 216.399 174.557C216.281 174.492 216.085 174.446 215.811 174.419C215.295 174.376 214.891 174.247 214.601 174.032C214.316 173.812 214.174 173.524 214.174 173.17C214.174 172.922 214.246 172.705 214.391 172.516C214.537 172.323 214.741 172.175 215.004 172.073C215.273 171.965 215.582 171.912 215.932 171.912C216.238 171.912 216.526 171.952 216.794 172.033C217.069 172.108 217.313 172.218 217.528 172.363L217.093 173.105C216.77 172.901 216.399 172.799 215.98 172.799C215.475 172.799 215.222 172.922 215.222 173.17C215.222 173.277 215.276 173.363 215.383 173.428C215.491 173.487 215.668 173.527 215.915 173.549C216.496 173.608 216.926 173.739 217.206 173.944C217.491 174.148 217.633 174.441 217.633 174.823C217.633 175.21 217.472 175.522 217.149 175.758C216.832 175.989 216.399 176.105 215.851 176.105ZM218.899 176.073C218.716 176.073 218.565 176.016 218.447 175.903C218.329 175.79 218.27 175.645 218.27 175.468C218.27 175.29 218.329 175.145 218.447 175.032C218.565 174.914 218.716 174.855 218.899 174.855C219.081 174.855 219.232 174.914 219.35 175.032C219.474 175.145 219.536 175.29 219.536 175.468C219.536 175.645 219.476 175.79 219.358 175.903C219.24 176.016 219.087 176.073 218.899 176.073ZM218.27 173.161C218.27 172.984 218.329 172.839 218.447 172.726C218.565 172.608 218.716 172.549 218.899 172.549C219.081 172.549 219.232 172.608 219.35 172.726C219.474 172.839 219.536 172.984 219.536 173.161C219.536 173.334 219.474 173.479 219.35 173.597C219.232 173.71 219.081 173.766 218.899 173.766C218.716 173.766 218.565 173.71 218.447 173.597C218.329 173.479 218.27 173.334 218.27 173.161ZM221.962 169.952H222.929L221.204 176.403H220.236L221.962 169.952ZM225.253 169.952H226.221L224.495 176.403H223.528L225.253 169.952ZM228.626 176.081C228.126 176.081 227.725 175.917 227.424 175.589C227.128 175.255 226.981 174.807 226.981 174.242V172.016H228.053V174.178C228.053 174.479 228.128 174.715 228.279 174.887C228.435 175.059 228.642 175.145 228.9 175.145C229.185 175.145 229.413 175.048 229.585 174.855C229.763 174.661 229.851 174.411 229.851 174.105V172.016H230.924V176H229.997L229.924 175.54C229.768 175.712 229.577 175.847 229.351 175.944C229.131 176.035 228.889 176.081 228.626 176.081ZM231.959 170.355H233.031V176H231.959V170.355ZM235.828 176.065C235.403 176.065 235.07 175.944 234.828 175.702C234.591 175.46 234.473 175.089 234.473 174.589V172.895H233.755V172.016H234.473V171L235.537 170.887V172.016H236.61V172.895H235.537V174.589C235.537 174.766 235.58 174.903 235.666 175C235.758 175.091 235.884 175.137 236.045 175.137C236.201 175.137 236.36 175.1 236.521 175.024L236.803 175.855C236.642 175.93 236.483 175.984 236.328 176.016C236.177 176.048 236.01 176.065 235.828 176.065ZM237.416 172.016H238.344L238.432 172.516C238.723 172.129 239.096 171.936 239.553 171.936C239.747 171.936 239.932 171.968 240.11 172.033C240.293 172.092 240.446 172.18 240.569 172.299L240.102 173.129C239.897 172.989 239.682 172.92 239.457 172.92C239.161 172.92 238.924 173.019 238.747 173.218C238.575 173.417 238.489 173.696 238.489 174.057V176H237.416V172.016ZM242.654 176.089C242.277 176.089 241.941 176.003 241.646 175.831C241.355 175.653 241.127 175.406 240.96 175.089C240.799 174.772 240.718 174.411 240.718 174.008C240.718 173.605 240.799 173.245 240.96 172.928C241.127 172.61 241.355 172.366 241.646 172.194C241.941 172.016 242.277 171.928 242.654 171.928C242.933 171.928 243.191 171.976 243.428 172.073C243.67 172.17 243.871 172.309 244.032 172.492L244.105 172.016H245.032V176H244.105L244.032 175.516C243.866 175.704 243.664 175.847 243.428 175.944C243.191 176.04 242.933 176.089 242.654 176.089ZM241.783 174.008C241.783 174.342 241.885 174.616 242.089 174.831C242.293 175.046 242.554 175.153 242.871 175.153C243.194 175.153 243.457 175.046 243.662 174.831C243.866 174.616 243.968 174.342 243.968 174.008C243.968 173.675 243.866 173.401 243.662 173.186C243.457 172.971 243.194 172.863 242.871 172.863C242.554 172.863 242.293 172.971 242.089 173.186C241.885 173.401 241.783 173.675 241.783 174.008ZM246.579 176.073C246.396 176.073 246.246 176.016 246.128 175.903C246.009 175.79 245.95 175.645 245.95 175.468C245.95 175.29 246.009 175.145 246.128 175.032C246.246 174.914 246.396 174.855 246.579 174.855C246.762 174.855 246.913 174.914 247.031 175.032C247.154 175.145 247.216 175.29 247.216 175.468C247.216 175.645 247.157 175.79 247.039 175.903C246.921 176.016 246.767 176.073 246.579 176.073ZM249.499 176.065C249.074 176.065 248.741 175.944 248.499 175.702C248.262 175.46 248.144 175.089 248.144 174.589V172.895H247.426V172.016H248.144V171L249.208 170.887V172.016H250.281V172.895H249.208V174.589C249.208 174.766 249.251 174.903 249.337 175C249.429 175.091 249.555 175.137 249.716 175.137C249.872 175.137 250.031 175.1 250.192 175.024L250.474 175.855C250.313 175.93 250.154 175.984 249.999 176.016C249.848 176.048 249.681 176.065 249.499 176.065ZM251.087 170.355H252.16V172.468C252.472 172.113 252.888 171.936 253.41 171.936C253.915 171.936 254.316 172.102 254.611 172.436C254.912 172.769 255.063 173.215 255.063 173.774V176H253.99V173.839C253.99 173.532 253.915 173.296 253.765 173.129C253.619 172.957 253.412 172.871 253.144 172.871C252.848 172.871 252.609 172.968 252.426 173.161C252.249 173.35 252.16 173.597 252.16 173.903V176H251.087V170.355ZM258 176.105C257.554 176.105 257.164 176.019 256.831 175.847C256.503 175.675 256.248 175.433 256.065 175.121C255.888 174.804 255.799 174.436 255.799 174.016C255.799 173.608 255.885 173.247 256.057 172.936C256.234 172.618 256.482 172.374 256.799 172.202C257.116 172.024 257.481 171.936 257.895 171.936C258.546 171.936 259.057 172.119 259.428 172.484C259.799 172.844 259.984 173.339 259.984 173.968C259.984 174.092 259.976 174.223 259.96 174.363H256.887C256.925 174.616 257.046 174.817 257.25 174.968C257.46 175.118 257.723 175.194 258.041 175.194C258.256 175.194 258.463 175.161 258.662 175.097C258.86 175.027 259.024 174.933 259.153 174.815L259.75 175.427C259.54 175.642 259.282 175.809 258.976 175.927C258.67 176.046 258.344 176.105 258 176.105ZM258.952 173.653C258.93 173.395 258.828 173.191 258.645 173.041C258.463 172.89 258.223 172.815 257.928 172.815C257.643 172.815 257.409 172.89 257.226 173.041C257.049 173.186 256.941 173.39 256.904 173.653H258.952ZM262.436 176.089C262.059 176.089 261.723 176.003 261.428 175.831C261.137 175.653 260.909 175.406 260.742 175.089C260.581 174.772 260.5 174.411 260.5 174.008C260.5 173.605 260.581 173.245 260.742 172.928C260.909 172.61 261.137 172.366 261.428 172.194C261.723 172.016 262.059 171.928 262.436 171.928C262.715 171.928 262.973 171.976 263.21 172.073C263.452 172.17 263.653 172.309 263.814 172.492L263.887 172.016H264.814V176H263.887L263.814 175.516C263.648 175.704 263.446 175.847 263.21 175.944C262.973 176.04 262.715 176.089 262.436 176.089ZM261.565 174.008C261.565 174.342 261.667 174.616 261.871 174.831C262.075 175.046 262.336 175.153 262.653 175.153C262.976 175.153 263.239 175.046 263.444 174.831C263.648 174.616 263.75 174.342 263.75 174.008C263.75 173.675 263.648 173.401 263.444 173.186C263.239 172.971 262.976 172.863 262.653 172.863C262.336 172.863 262.075 172.971 261.871 173.186C261.667 173.401 261.565 173.675 261.565 174.008ZM265.845 172.016H266.772L266.845 172.476C267.001 172.304 267.192 172.172 267.418 172.081C267.643 171.984 267.888 171.936 268.151 171.936C268.662 171.936 269.068 172.102 269.369 172.436C269.67 172.764 269.821 173.21 269.821 173.774V176H268.748V173.839C268.748 173.532 268.67 173.296 268.514 173.129C268.364 172.957 268.154 172.871 267.885 172.871C267.595 172.871 267.361 172.968 267.184 173.161C267.006 173.355 266.918 173.605 266.918 173.911V176H265.845V172.016ZM272.492 176.089C272.116 176.089 271.78 176.003 271.484 175.831C271.194 175.653 270.965 175.406 270.798 175.089C270.637 174.772 270.557 174.411 270.557 174.008C270.557 173.605 270.637 173.245 270.798 172.928C270.965 172.61 271.194 172.366 271.484 172.194C271.78 172.016 272.116 171.928 272.492 171.928C272.771 171.928 273.03 171.976 273.266 172.073C273.508 172.17 273.71 172.309 273.871 172.492L273.943 172.016H274.871V176H273.943L273.871 175.516C273.704 175.704 273.503 175.847 273.266 175.944C273.03 176.04 272.771 176.089 272.492 176.089ZM271.621 174.008C271.621 174.342 271.723 174.616 271.927 174.831C272.132 175.046 272.392 175.153 272.71 175.153C273.032 175.153 273.296 175.046 273.5 174.831C273.704 174.616 273.806 174.342 273.806 174.008C273.806 173.675 273.704 173.401 273.5 173.186C273.296 172.971 273.032 172.863 272.71 172.863C272.392 172.863 272.132 172.971 271.927 173.186C271.723 173.401 271.621 173.675 271.621 174.008ZM275.901 172.016H276.829L276.901 172.476C277.057 172.304 277.248 172.172 277.474 172.081C277.7 171.984 277.944 171.936 278.208 171.936C278.718 171.936 279.124 172.102 279.425 172.436C279.726 172.764 279.877 173.21 279.877 173.774V176H278.805V173.839C278.805 173.532 278.727 173.296 278.571 173.129C278.42 172.957 278.21 172.871 277.942 172.871C277.651 172.871 277.418 172.968 277.24 173.161C277.063 173.355 276.974 173.605 276.974 173.911V176H275.901V172.016ZM282.574 176.065C282.149 176.065 281.816 175.944 281.574 175.702C281.337 175.46 281.219 175.089 281.219 174.589V172.895H280.501V172.016H281.219V171L282.283 170.887V172.016H283.356V172.895H282.283V174.589C282.283 174.766 282.326 174.903 282.412 175C282.504 175.091 282.63 175.137 282.791 175.137C282.947 175.137 283.106 175.1 283.267 175.024L283.549 175.855C283.388 175.93 283.229 175.984 283.074 176.016C282.923 176.048 282.756 176.065 282.574 176.065ZM285.848 176.089C285.472 176.089 285.136 176.003 284.84 175.831C284.55 175.653 284.321 175.406 284.154 175.089C283.993 174.772 283.913 174.411 283.913 174.008C283.913 173.605 283.993 173.245 284.154 172.928C284.321 172.61 284.55 172.366 284.84 172.194C285.136 172.016 285.472 171.928 285.848 171.928C286.127 171.928 286.386 171.976 286.622 172.073C286.864 172.17 287.066 172.309 287.227 172.492L287.299 172.016H288.227V176H287.299L287.227 175.516C287.06 175.704 286.859 175.847 286.622 175.944C286.386 176.04 286.127 176.089 285.848 176.089ZM284.977 174.008C284.977 174.342 285.079 174.616 285.283 174.831C285.488 175.046 285.748 175.153 286.066 175.153C286.388 175.153 286.652 175.046 286.856 174.831C287.06 174.616 287.162 174.342 287.162 174.008C287.162 173.675 287.06 173.401 286.856 173.186C286.652 172.971 286.388 172.863 286.066 172.863C285.748 172.863 285.488 172.971 285.283 173.186C285.079 173.401 284.977 173.675 284.977 174.008ZM289.774 176.073C289.591 176.073 289.44 176.016 289.322 175.903C289.204 175.79 289.145 175.645 289.145 175.468C289.145 175.29 289.204 175.145 289.322 175.032C289.44 174.914 289.591 174.855 289.774 174.855C289.956 174.855 290.107 174.914 290.225 175.032C290.349 175.145 290.411 175.29 290.411 175.468C290.411 175.645 290.351 175.79 290.233 175.903C290.115 176.016 289.962 176.073 289.774 176.073ZM291.329 172.016H292.401V176H291.329V172.016ZM291.216 170.904C291.216 170.721 291.278 170.57 291.401 170.452C291.525 170.334 291.681 170.275 291.869 170.275C292.057 170.275 292.213 170.334 292.337 170.452C292.466 170.57 292.53 170.721 292.53 170.904C292.53 171.081 292.466 171.229 292.337 171.347C292.213 171.46 292.057 171.516 291.869 171.516C291.681 171.516 291.525 171.46 291.401 171.347C291.278 171.229 291.216 171.081 291.216 170.904ZM293.431 172.016H294.359L294.431 172.476C294.587 172.304 294.778 172.172 295.004 172.081C295.229 171.984 295.474 171.936 295.738 171.936C296.248 171.936 296.654 172.102 296.955 172.436C297.256 172.764 297.407 173.21 297.407 173.774V176H296.334V173.839C296.334 173.532 296.256 173.296 296.1 173.129C295.95 172.957 295.74 172.871 295.471 172.871C295.181 172.871 294.947 172.968 294.77 173.161C294.592 173.355 294.504 173.605 294.504 173.911V176H293.431V172.016Z" fill="black"/>
<rect x="150" y="205" width="148" height="9" fill="#D9D9D9"/>
<rect x="150" y="223" width="90" height="9" fill="#D9D9D9"/>
<rect x="150" y="241" width="119" height="9" fill="#D9D9D9"/>
<rect x="150" y="259" width="52" height="9" fill="#D9D9D9"/>
<rect x="150" y="277" width="107" height="9" fill="#D9D9D9"/>
<mask id="path-14-outside-1_32_214" maskUnits="userSpaceOnUse" x="190.754" y="202.83" width="76.9547" height="73.6912" fill="black">
<rect fill="white" x="190.754" y="202.83" width="76.9547" height="73.6912"/>
<path fill-rule="evenodd" clip-rule="evenodd" d="M240.589 230.16C242.016 229.03 241.314 226.736 239.499 226.598L211.186 224.447C209.687 224.333 208.603 225.852 209.198 227.233L220.438 253.308C221.159 254.98 223.556 254.898 224.161 253.181L226.094 247.697C226.536 246.442 228.058 245.961 229.142 246.734L243.475 256.963C244.374 257.604 245.623 257.396 246.265 256.497L250.912 249.985C251.554 249.086 251.345 247.837 250.446 247.195L236.112 236.966C235.029 236.193 234.989 234.597 236.032 233.771L240.589 230.16Z"/>
</mask>
<path fill-rule="evenodd" clip-rule="evenodd" d="M240.589 230.16C242.016 229.03 241.314 226.736 239.499 226.598L211.186 224.447C209.687 224.333 208.603 225.852 209.198 227.233L220.438 253.308C221.159 254.98 223.556 254.898 224.161 253.181L226.094 247.697C226.536 246.442 228.058 245.961 229.142 246.734L243.475 256.963C244.374 257.604 245.623 257.396 246.265 256.497L250.912 249.985C251.554 249.086 251.345 247.837 250.446 247.195L236.112 236.966C235.029 236.193 234.989 234.597 236.032 233.771L240.589 230.16Z" fill="white"/>
<path d="M236.112 236.966L232.627 241.85L236.112 236.966ZM236.032 233.771L239.758 238.474L236.032 233.771ZM250.446 247.195L246.96 252.079L250.446 247.195ZM226.094 247.697L220.435 245.703L226.094 247.697ZM239.499 226.598L239.954 220.616L239.499 226.598ZM240.589 230.16L236.864 225.457L240.589 230.16ZM210.732 230.43L239.044 232.581L239.954 220.616L211.641 218.464L210.732 230.43ZM225.948 250.933L214.708 224.858L203.688 229.608L214.929 255.683L225.948 250.933ZM220.435 245.703L218.502 251.187L229.82 255.175L231.753 249.691L220.435 245.703ZM246.96 252.079L232.627 241.85L225.656 251.618L239.99 261.847L246.96 252.079ZM246.028 246.499L241.381 253.011L251.149 259.982L255.796 253.47L246.028 246.499ZM232.627 241.85L246.96 252.079L253.931 242.311L239.597 232.082L232.627 241.85ZM236.864 225.457L232.306 229.067L239.758 238.474L244.315 234.863L236.864 225.457ZM239.597 232.082C241.764 233.629 241.844 236.821 239.758 238.474L232.306 229.067C228.133 232.373 228.293 238.757 232.627 241.85L239.597 232.082ZM255.796 253.47C258.362 249.874 257.527 244.878 253.931 242.311L246.96 252.079C245.162 250.796 244.745 248.298 246.028 246.499L255.796 253.47ZM239.99 261.847C243.586 264.413 248.582 263.578 251.149 259.982L241.381 253.011C242.664 251.213 245.162 250.796 246.96 252.079L239.99 261.847ZM231.753 249.691C230.868 252.202 227.823 253.164 225.656 251.618L232.627 241.85C228.293 238.758 222.204 240.682 220.435 245.703L231.753 249.691ZM214.929 255.683C217.811 262.369 227.401 262.042 229.82 255.175L218.502 251.187C219.712 247.753 224.507 247.59 225.948 250.933L214.929 255.683ZM239.044 232.581C235.414 232.305 234.01 227.718 236.864 225.457L244.315 234.863C250.022 230.342 247.214 221.167 239.954 220.616L239.044 232.581ZM211.641 218.464C205.644 218.009 201.307 224.085 203.688 229.608L214.708 224.858C215.898 227.619 213.73 230.658 210.732 230.43L211.641 218.464Z" fill="black" mask="url(#path-14-outside-1_32_214)"/>
</g>
<defs>
<clipPath id="clip0_32_214">
<rect width="417" height="389" fill="white"/>
</clipPath>
</defs>
</svg>
